<svg xmlns="http://www.w3.org/2000/svg" viewBox="0 0 287.14 275.74">
    <defs>
        <style>.cls-1{fill:#e30613;}</style>
    </defs>
    <title>Asset 2</title>
    <g id="Layer_2" data-name="Layer 2">
        <g id="Layer_1-2" data-name="Layer 1">
            <polygon class="cls-1"
                     points="152.84 154.82 152.84 0 124.84 0 124.84 152.78 80.21 108.16 60.41 127.96 138.4 205.94 226.72 125.24 207.84 104.57 152.84 154.82"/>
            <path class="cls-1"
                  d="M273.14,97.88a14,14,0,0,0-14,14V247.74H28V111.88a14,14,0,0,0-28,0V261.74a14,14,0,0,0,14,14H273.14a14,14,0,0,0,14-14V111.88A14,14,0,0,0,273.14,97.88Z"/>
        </g>
    </g>
</svg>