<?xml version="1.0" encoding="UTF-8"?>
<svg width="27px" height="27px" viewBox="0 0 27 27" version="1.1" xmlns="http://www.w3.org/2000/svg" xmlns:xlink="http://www.w3.org/1999/xlink">
    <g id="Symbols" stroke="none" stroke-width="1" fill="none" fill-rule="evenodd">
        <g id="menu/default" transform="translate(-23.000000, -27.000000)" fill="#FFFFFF">
            <g id="Combined-Shape">
                <path d="M41.909577,43.7882566 L49.1568542,51.0355339 L47.0355339,53.1568542 L39.7882566,45.909577 C38.0353858,47.2223947 35.8585027,48 33.5,48 C27.7010101,48 23,43.2989899 23,37.5 C23,31.7010101 27.7010101,27 33.5,27 C39.2989899,27 44,31.7010101 44,37.5 C44,39.8585027 43.2223947,42.0353858 41.909577,43.7882566 Z M33.5,45 C37.6421356,45 41,41.6421356 41,37.5 C41,33.3578644 37.6421356,30 33.5,30 C29.3578644,30 26,33.3578644 26,37.5 C26,41.6421356 29.3578644,45 33.5,45 Z"></path>
            </g>
        </g>
    </g>
</svg>