<svg id="Layer_1" data-name="Layer 1" xmlns="http://www.w3.org/2000/svg" viewBox="0 0 512 512"><defs><style>.cls-1{fill:none;stroke:#e30613;stroke-linecap:round;stroke-linejoin:round;stroke-width:28px;}</style></defs><title>Phone</title><path class="cls-1" d="M280.34,309.59c-3.4-1.83-7.75-4.31-12.6-7.51-37-26.55-56.9-53.94-66.33-70a20.13,20.13,0,0,1,3.14-24.43l21.17-21.16a17.53,17.53,0,0,0,0-24.78l-48.87-48.87a17.34,17.34,0,0,0-24.71.21l-24.29,25.09c-16.63,17.18-24.78,43.57-18.26,66.57,0,0,22.06,135.7,198.12,196.66,22.59,7.82,49.39-1.64,66.57-18.26l25.1-24.29a17.33,17.33,0,0,0,.2-24.71l-48.87-48.87a17.52,17.52,0,0,0-24.77,0l-21.16,21.16A20.15,20.15,0,0,1,280.34,309.59Z"/></svg>