<svg xmlns="http://www.w3.org/2000/svg" width="19" height="17" viewBox="0 0 19 17">
    <path fill="#E30613" fill-rule="evenodd" d="M17.482 13.51H4.577c-.275-.937-1.19-1.606-2.243-1.606C1.053 11.904 0 12.929 0 14.178c0 1.248 1.053 2.274 2.334 2.274a2.357 2.357 0 0 0 2.243-1.605h12.86c.366 0 .686-.312.686-.67 0-.356-.274-.668-.64-.668zM3.066 14.846a.944.944 0 0 1-.686.267.954.954 0 0 1-.961-.936c0-.49.457-.936.96-.936.275 0 .504.089.687.267a.895.895 0 0 1 .275.669c0 .267-.092.49-.275.669zm-.686-10.3a2.357 2.357 0 0 0 2.242-1.604h12.86c.367 0 .687-.313.687-.67 0-.356-.32-.668-.687-.668H4.577C4.302.669 3.387 0 2.334 0 1.053 0 0 1.025 0 2.274c0 1.248 1.053 2.274 2.38 2.274zm0-3.21c.274 0 .503.09.686.268a.895.895 0 0 1 .275.669c0 .267-.092.49-.275.669a.944.944 0 0 1-.686.267.954.954 0 0 1-.961-.936c0-.49.412-.936.96-.936zM17.482 7.58h-5.354c-.275-.936-1.19-1.605-2.243-1.605A2.357 2.357 0 0 0 7.643 7.58H2.38c-.366 0-.687.312-.687.67 0 .356.32.668.687.668h5.309c.274.936 1.19 1.605 2.242 1.605a2.357 2.357 0 0 0 2.243-1.605h5.308c.367 0 .687-.312.687-.669 0-.357-.32-.669-.687-.669zm-6.864 1.338a.944.944 0 0 1-.687.267.944.944 0 0 1-.686-.267.895.895 0 0 1-.275-.669c0-.267.092-.49.275-.669a.944.944 0 0 1 .686-.267c.275 0 .504.089.687.267a.895.895 0 0 1 .274.67.97.97 0 0 1-.274.668z"/>
</svg>
